<svg xmlns="http://www.w3.org/2000/svg" width="600" height="300" viewBox="0 0 158.75 79.375"><path fill="red" d="M0 79.375V0h158.75v79.375z" style="mix-blend-mode:normal;fill:#75C1C4;fill-opacity:1;fill-rule:nonzero;stroke:none;stroke-width:.898027;stroke-linecap:butt;stroke-linejoin:miter;stroke-miterlimit:10;stroke-dasharray:none;stroke-dashoffset:0"/><path fill="#5da8cc" d="M.20923618 39.687502c0-43.7220435 35.44371882-79.165766 79.16576582-79.165766 43.722038 0 79.165768 35.4437225 79.165768 79.165766 0 43.722035-35.44373 79.165768-79.165768 79.165768-43.722046 0-79.16576582-35.443733-79.16576582-79.165768z" style="mix-blend-mode:normal;fill:#5da8cc;fill-opacity:1;fill-rule:nonzero;stroke:none;stroke-width:.936949;stroke-linecap:butt;stroke-linejoin:miter;stroke-miterlimit:10;stroke-dasharray:none;stroke-dashoffset:0"/><path fill="red" d="M10.001328 39.687502c0-38.3140187 31.059649-69.373671 69.373672-69.373671 38.31402 0 69.37367 31.0596523 69.37367 69.373671 0 38.31401-31.05965 69.373668-69.37367 69.373668S10.001331 78.001512 10.001331 39.687504z" style="mix-blend-mode:normal;fill:#75C1C4;fill-opacity:1;fill-rule:nonzero;stroke:none;stroke-width:.936949;stroke-linecap:butt;stroke-linejoin:miter;stroke-miterlimit:10;stroke-dasharray:none;stroke-dashoffset:0"/><path fill="#5da8cc" d="M19.917383 39.687502c0-32.8375404 26.620087-59.457626 59.457626-59.457626 32.837541 0 59.457621 26.6200856 59.457621 59.457626 0 32.837532-26.62009 59.457627-59.457621 59.457627-32.837539 0-59.457624-26.620095-59.457626-59.457627z" style="mix-blend-mode:normal;fill:#5da8cc;fill-opacity:1;fill-rule:nonzero;stroke:none;stroke-width:.936949;stroke-linecap:butt;stroke-linejoin:miter;stroke-miterlimit:10;stroke-dasharray:none;stroke-dashoffset:0"/><path fill="red" d="M29.95738 39.687502c0-27.292601 22.125025-49.4176273 49.417629-49.4176273 27.292601 0 49.417631 22.1250263 49.417631 49.4176273s-22.12503 49.417632-49.417631 49.417632c-27.292599 0-49.417624-22.125031-49.417624-49.417632z" style="mix-blend-mode:normal;fill:#75C1C4;fill-opacity:1;fill-rule:nonzero;stroke:none;stroke-width:.936949;stroke-linecap:butt;stroke-linejoin:miter;stroke-miterlimit:10;stroke-dasharray:none;stroke-dashoffset:0"/><path fill="#5da8cc" d="M39.687495 39.687502C39.687495 17.768699 57.456198 0 79.375 0c21.9188 0 39.68751 17.768699 39.68751 39.687502 0 21.918804-17.76871 39.687505-39.687501 39.687505-21.918809 0-39.687508-17.7687-39.687508-39.687503z" style="mix-blend-mode:normal;fill:#5da8cc;fill-opacity:1;fill-rule:nonzero;stroke:none;stroke-width:.936949;stroke-linecap:butt;stroke-linejoin:miter;stroke-miterlimit:10;stroke-dasharray:none;stroke-dashoffset:0"/><path fill="red" d="M49.789468 39.687502c0-16.339636 13.245894-29.585531 29.585532-29.585531 16.339634 0 29.58554 13.245895 29.58554 29.585531 0 16.339638-13.245895 29.585532-29.585531 29.585532-16.339641 0-29.585536-13.245894-29.585536-29.585532z" style="mix-blend-mode:normal;fill:#75C1C4;fill-opacity:1;fill-rule:nonzero;stroke:none;stroke-width:.936949;stroke-linecap:butt;stroke-linejoin:miter;stroke-miterlimit:10;stroke-dasharray:none;stroke-dashoffset:0"/><path fill="#5da8cc" d="M59.51959 39.687502c0-10.965848 8.889571-19.855417 19.85541-19.855417 10.965846 0 19.855417 8.889569 19.855417 19.855417 0 10.965839-8.889571 19.855407-19.855408 19.855407-10.965848 0-19.855416-8.889568-19.855416-19.855407z" style="mix-blend-mode:normal;fill:#5da8cc;fill-opacity:1;fill-rule:nonzero;stroke:none;stroke-width:.936949;stroke-linecap:butt;stroke-linejoin:miter;stroke-miterlimit:10;stroke-dasharray:none;stroke-dashoffset:0"/><path fill="red" d="M69.476944 39.687502c0-5.466545 4.431509-9.898053 9.898045-9.898053 5.466538 0 9.898055 4.431508 9.898055 9.898053 0 5.466538-4.431517 9.898045-9.898055 9.898045-5.466536 0-9.898045-4.431507-9.898045-9.898045z" style="mix-blend-mode:normal;fill:#75C1C4;fill-opacity:1;fill-rule:nonzero;stroke:none;stroke-width:.936949;stroke-linecap:butt;stroke-linejoin:miter;stroke-miterlimit:10;stroke-dasharray:none;stroke-dashoffset:0"/><path d="M 2.5 0 L 6 0 L 5 1 L 3 1 L 1 3 L 1 7 L 0 6 L 0 2.5 L 2.5 0 M 0 7 L 0 10 L 1 10 L 1 8 L 0 7 M 7 0 L 10 0 L 7 3 L 4 3 L 3 4 L 3 8 L 2 9 L 2 3.5 L 3.5 2 L 6.5 2 L 7.5 1 L 6 1 L 7 0 M 2 10 L 3 9 L 7.5 9 L 9 7.5 L 9 6 L 7 6 L 8 5 L 10 5 L 10 8 L 8 10 L 2 10 M 10 1 L 10 2 L 6 6 L 5 6 L 10 1 Z" fill="#fff" transform="translate(56.875, 17.1875) scale(4.5)"/></svg>