<svg width="331" height="185" xmlns="http://www.w3.org/2000/svg" xmlns:xlink="http://www.w3.org/1999/xlink" xml:space="preserve" overflow="hidden"><g transform="translate(-1963 -1152)"><path d="M1969.18 1158.25C1976.56 1150.86 1988.53 1150.86 1995.91 1158.25L2141.75 1304.09C2149.14 1311.47 2149.14 1323.44 2141.75 1330.82L2141.75 1330.82C2134.37 1338.21 2122.4 1338.21 2115.02 1330.82L1969.18 1184.98C1961.79 1177.6 1961.79 1165.63 1969.18 1158.25Z" fill="#FFFFFF" fill-rule="evenodd"/><path d="M2287.59 1158.25C2294.98 1165.63 2294.98 1177.6 2287.6 1184.98L2141.75 1330.82C2134.37 1338.21 2122.4 1338.21 2115.02 1330.82L2115.02 1330.82C2107.63 1323.44 2107.63 1311.47 2115.02 1304.09L2260.86 1158.25C2268.24 1150.86 2280.21 1150.86 2287.6 1158.25Z" fill="#FFFFFF" fill-rule="evenodd"/></g></svg>