<svg width="16" height="16" viewBox="0 0 16 16" fill="none" xmlns="http://www.w3.org/2000/svg">
<path d="M8 1C4.13401 1 1 4.13401 1 8C1 11.866 4.13401 15 8 15C11.866 15 15 11.866 15 8C15 4.13401 11.866 1 8 1ZM8 2.2C11.2006 2.2 13.8 4.79939 13.8 8C13.8 11.2006 11.2006 13.8 8 13.8C4.79939 13.8 2.2 11.2006 2.2 8C2.2 4.79939 4.79939 2.2 8 2.2Z" fill="currentColor"/>
<path d="M8 4C7.44772 4 7 4.44772 7 5V7H5C4.44772 7 4 7.44772 4 8C4 8.55228 4.44772 9 5 9H7V11C7 11.5523 7.44772 12 8 12C8.55228 12 9 11.5523 9 11V9H11C11.5523 9 12 8.55228 12 8C12 7.44772 11.5523 7 11 7H9V5C9 4.44772 8.55228 4 8 4Z" fill="currentColor"/>
</svg>
