<?xml version="1.0" encoding="UTF-8" standalone="no" ?>
<!DOCTYPE svg PUBLIC "-//W3C//DTD SVG 1.1//EN" "http://www.w3.org/Graphics/SVG/1.1/DTD/svg11.dtd">
<svg xmlns="http://www.w3.org/2000/svg" xmlns:xlink="http://www.w3.org/1999/xlink" version="1.1" width="600" height="372" viewBox="0 0 600 372" xml:space="preserve">
<desc>Created with Fabric.js 3.6.6</desc>
<defs>
</defs>
<rect x="0" y="0" width="100%" height="100%" fill="rgba(255, 255, 255, 1)"></rect>
<g transform="matrix(16.12 0 0 16.12 299.98 185.69)"  >
<path style="stroke: none; stroke-width: 1; stroke-dasharray: none; stroke-linecap: butt; stroke-dashoffset: 0; stroke-linejoin: miter; stroke-miterlimit: 4; fill: rgb(0,0,0); fill-rule: nonzero; opacity: 1;"  transform=" translate(-8, -8)" d="M 14.85 3 c 0.63 0 1.15 0.52 1.14 1.15 v 7.7 c 0 0.63 -0.51 1.15 -1.15 1.15 H 1.15 C 0.52 13 0 12.48 0 11.84 V 4.15 C 0 3.52 0.52 3 1.15 3 Z M 9 11 V 5 H 7 L 5.5 7 L 4 5 H 2 v 6 h 2 V 8 l 1.5 1.92 L 7 8 v 3 Z m 2.99 0.5 L 14.5 8 H 13 V 5 h -2 v 3 H 9.5 Z" stroke-linecap="round" />
</g>
</svg>